<svg xmlns="http://www.w3.org/2000/svg" viewBox="0 0 20 35" width="32" height="32">
    <path fill="#f9ae08" d="M9.56 28.668c-1.981 0-3.8-.666-4.972-1.662-.594.179-1.355.466-1.835.823-.41.305-.359.615-.285.741.325.55 5.577.351 7.094.18v-.082z"/>
    <path fill="#f9ae08" d="M9.56 28.668c1.98 0 3.8-.666 4.971-1.662.595.179 1.356.466 1.836.823.41.305.359.615.285.741-.326.55-5.578.351-7.094.18v-.082z"/>
    <path fill="#000" d="M9.573 16.55c3.272-.023 5.894-.476 6.784-.72a.84.84 0 0 0 .325-.163c0-.03.013-.535.013-.796-.002-4.39-2.063-8.802-7.135-8.802-5.073 0-7.134 4.411-7.134 8.802 0 .261.013.767.013.796 0 0 .093.098.261.145.821.229 3.493.715 6.849.738zM18.465 20.391c-.204-.655-.48-1.42-.76-2.157 0 0-.188-.005-.285.016-2.33.503-5.536.869-7.847.841h-.024c-2.311.028-5.632-.356-7.847-.84-.098-.021-.285-.017-.285-.017-.28.735-.558 1.5-.76 2.157-.893 2.785-.71 4.331-.413 4.444.423.163 1.99-2.347 1.99-2.347 0 2.457 2.207 6.227 7.26 6.263h.135c5.053-.036 7.26-3.806 7.26-6.263 0 0 1.567 2.508 1.99 2.347.295-.113.478-1.659-.411-4.444z"/>
    <path fill="#f9ae08" d="M9.573 15.111c1.68 0 3.268-.597 4.005-1.117.258-.182.189-.453-.082-.58-.31-.147-.635-.236-1.005-.322a13.4 13.4 0 0 0-2.917-.332H9.55c-.934 0-1.98.114-2.917.332-.37.085-.695.175-1.004.322-.271.127-.34.398-.082.58.737.52 2.325 1.117 4.005 1.117h.024z"/>
    <path fill="#fff" d="M9.571 19.078h-.024c-1.569.02-3.471-.053-5.314-.417a15 15 0 0 0-.172 3.449c.207 3.477 2.262 5.663 5.435 5.695h.128c3.172-.032 5.228-2.218 5.435-5.695a15 15 0 0 0-.172-3.449c-1.843.366-3.745.437-5.316.417"/>
    <path fill="#f10824" d="M5.07 22.237c0 .087.063.163.15.175.856.13 1.864.178 2.835.104a.177.177 0 0 0 .162-.178v-3.395c-.997-.056-2.072-.14-3.146-.322z"/>
    <path fill="#f10824" d="M9.549 19.23c-2.53 0-5.424-.294-8.132-.994l1.024-2.568s3.014.756 7.108.756h.024c4.093 0 7.108-.755 7.108-.755l1.024 2.567c-2.709.702-5.602.994-8.132.994z"/>
    <path fill="#fff" d="M7.755 12.44c-.687.031-1.275-.756-1.312-1.756-.037-1.002.49-1.84 1.178-1.872.687-.03 1.274.757 1.312 1.759.037 1.002-.489 1.84-1.178 1.87M12.677 10.684c-.037 1.001-.625 1.789-1.312 1.757-.688-.03-1.215-.868-1.178-1.87s.625-1.79 1.312-1.76 1.215.87 1.178 1.873"/>
    <path fill="#000" d="M8.58 10.737c.034.431-.201.815-.525.856-.325.042-.615-.273-.65-.705-.034-.432.201-.815.523-.857.326-.042.617.274.651.706M10.552 10.83c.305-.527 1.02-.693 1.543-.407.374.2.106.657-.232.473-.32-.172-.764-.16-.998.139-.185.235-.456.041-.313-.207z"/>
</svg>