<svg t="1774508844390" class="icon" viewBox="0 0 1024 1024" version="1.1" xmlns="http://www.w3.org/2000/svg" p-id="5565" width="200" height="200"><path d="M314.461091 575.860364a14.429091 14.429091 0 0 1-10.24-24.482909l90.484364-91.415273a14.429091 14.429091 0 1 1 20.48 20.293818l-90.484364 91.322182a14.708364 14.708364 0 0 1-10.24 4.282182zM591.127273 772.654545H444.322909a14.336 14.336 0 1 1 0-28.672H591.127273a14.336 14.336 0 1 1 0 28.672zM721.454545 575.860364a14.708364 14.708364 0 0 1-10.24-4.282182l-90.484363-91.322182a14.429091 14.429091 0 0 1 20.48-20.293818l90.484363 91.415273a14.429091 14.429091 0 0 1-10.24 24.482909z" fill="#ED925B" p-id="5566"></path><path d="M522.146909 540.392727a14.336 14.336 0 0 1-14.429091-14.336V291.746909a14.429091 14.429091 0 0 1 28.765091 0v234.309818a14.336 14.336 0 0 1-14.336 14.336zM730.391273 425.518545a14.336 14.336 0 0 1-14.336-14.336V176.872727A14.336 14.336 0 0 1 744.727273 176.872727v234.309818a14.336 14.336 0 0 1-14.336 14.336zM313.809455 425.518545a14.336 14.336 0 0 1-14.336-14.336V176.872727a14.429091 14.429091 0 0 1 28.76509 0v234.309818a14.336 14.336 0 0 1-14.42909 14.336z" fill="#4796DD" p-id="5567"></path><path d="M521.309091 302.266182a14.336 14.336 0 0 1-7.168-26.810182L716.8 158.254545a14.336 14.336 0 0 1 14.336 24.855273l-202.752 117.294546a14.242909 14.242909 0 0 1-7.074909 1.861818z" fill="#4796DD" p-id="5568"></path><path d="M523.077818 302.266182a13.963636 13.963636 0 0 1-7.168-1.861818L312.878545 183.202909A14.336 14.336 0 1 1 327.307636 158.254545L530.618182 275.456a14.336 14.336 0 0 1 5.213091 19.642182 14.149818 14.149818 0 0 1-12.753455 7.168z" fill="#4796DD" p-id="5569"></path><path d="M320.139636 187.485091a14.615273 14.615273 0 0 1-12.939636-7.261091 14.522182 14.522182 0 0 1 5.492364-19.735273L518.702545 43.287273a14.429091 14.429091 0 1 1 14.336 25.134545L327.214545 185.623273a13.870545 13.870545 0 0 1-7.074909 1.861818z" fill="#4796DD" p-id="5570"></path><path d="M729.739636 187.485091a13.870545 13.870545 0 0 1-7.074909-1.861818L516.840727 68.421818a14.336 14.336 0 0 1-5.399272-19.735273 14.522182 14.522182 0 0 1 19.735272-5.399272l205.730909 117.201454a14.429091 14.429091 0 0 1-7.168 26.996364zM521.309091 546.536727a14.429091 14.429091 0 0 1-12.474182-7.261091 14.242909 14.242909 0 0 1 5.306182-19.549091L716.8 402.525091a14.336 14.336 0 0 1 14.336 24.855273L528.384 544.581818a14.336 14.336 0 0 1-7.074909 1.954909z" fill="#4796DD" p-id="5571"></path><path d="M523.077818 546.536727a14.056727 14.056727 0 0 1-7.168-1.954909L312.878545 427.380364a14.336 14.336 0 1 1 14.429091-24.855273L530.618182 519.726545a14.429091 14.429091 0 0 1-7.168 26.810182zM224.256 996.538182a14.336 14.336 0 0 1-14.429091-14.336V747.892364a14.429091 14.429091 0 0 1 28.765091 0v234.309818a14.336 14.336 0 0 1-14.336 14.336zM432.500364 881.664a14.336 14.336 0 0 1-14.336-14.336V633.018182A14.336 14.336 0 0 1 446.836364 633.018182v234.309818a14.336 14.336 0 0 1-14.336 14.336zM15.918545 881.664a14.336 14.336 0 0 1-14.336-14.336V633.018182a14.429091 14.429091 0 0 1 28.765091 0v234.309818a14.336 14.336 0 0 1-14.429091 14.336z" fill="#4796DD" p-id="5572"></path><path d="M223.418182 758.411636a14.336 14.336 0 0 1-7.168-26.810181L418.909091 614.4a14.336 14.336 0 0 1 14.336 24.855273l-202.752 117.294545a14.242909 14.242909 0 0 1-7.074909 1.861818z" fill="#4796DD" p-id="5573"></path><path d="M225.186909 758.411636a13.963636 13.963636 0 0 1-7.168-1.861818L14.987636 639.348364A14.336 14.336 0 0 1 29.416727 614.4L232.727273 731.601455a14.336 14.336 0 0 1 5.213091 19.642181 14.149818 14.149818 0 0 1-12.753455 7.168z" fill="#4796DD" p-id="5574"></path><path d="M22.248727 643.630545A14.615273 14.615273 0 0 1 9.309091 636.369455a14.522182 14.522182 0 0 1 5.492364-19.735273l205.730909-117.201455a14.429091 14.429091 0 0 1 14.336 25.134546L29.323636 641.768727a13.870545 13.870545 0 0 1-7.074909 1.861818z" fill="#4796DD" p-id="5575"></path><path d="M431.848727 643.630545a13.870545 13.870545 0 0 1-7.074909-1.861818L218.949818 524.567273a14.336 14.336 0 0 1-5.399273-19.735273 14.522182 14.522182 0 0 1 19.735273-5.399273l205.730909 117.201455a14.429091 14.429091 0 0 1-7.168 26.996363zM223.418182 1002.682182a14.429091 14.429091 0 0 1-12.474182-7.261091 14.242909 14.242909 0 0 1 5.306182-19.549091L418.909091 858.670545a14.336 14.336 0 0 1 14.336 24.855273L230.493091 1000.727273a14.336 14.336 0 0 1-7.074909 1.954909z" fill="#4796DD" p-id="5576"></path><path d="M225.186909 1002.682182a14.056727 14.056727 0 0 1-7.168-1.954909L14.987636 883.525818a14.336 14.336 0 0 1 14.429091-24.855273L232.727273 975.872a14.429091 14.429091 0 0 1-7.168 26.810182zM801.419636 1005.847273a14.336 14.336 0 0 1-14.429091-14.336V757.201455a14.429091 14.429091 0 0 1 28.765091 0v234.309818a14.336 14.336 0 0 1-14.336 14.336zM1009.664 890.973091a14.336 14.336 0 0 1-14.336-14.336V642.327273a14.336 14.336 0 0 1 28.672 0v234.309818a14.336 14.336 0 0 1-14.336 14.336zM593.082182 890.973091a14.336 14.336 0 0 1-14.336-14.336V642.327273a14.429091 14.429091 0 0 1 28.765091 0v234.309818a14.336 14.336 0 0 1-14.429091 14.336z" fill="#4796DD" p-id="5577"></path><path d="M800.581818 767.720727a14.336 14.336 0 0 1-7.168-26.810182L996.072727 623.709091a14.336 14.336 0 0 1 14.336 24.855273l-202.752 117.294545a14.242909 14.242909 0 0 1-7.074909 1.861818z" fill="#4796DD" p-id="5578"></path><path d="M802.350545 767.720727a13.963636 13.963636 0 0 1-7.168-1.861818L592.151273 648.657455A14.336 14.336 0 0 1 606.580364 623.709091L809.890909 740.910545a14.336 14.336 0 0 1 5.213091 19.642182 14.149818 14.149818 0 0 1-12.753455 7.168z" fill="#4796DD" p-id="5579"></path><path d="M599.412364 652.939636a14.615273 14.615273 0 0 1-12.939637-7.261091 14.522182 14.522182 0 0 1 5.492364-19.735272l205.730909-117.201455a14.429091 14.429091 0 0 1 14.336 25.134546L606.487273 651.077818a13.870545 13.870545 0 0 1-7.074909 1.861818z" fill="#4796DD" p-id="5580"></path><path d="M1009.012364 652.939636a13.870545 13.870545 0 0 1-7.074909-1.861818L796.113455 533.876364a14.336 14.336 0 0 1-5.399273-19.735273 14.522182 14.522182 0 0 1 19.735273-5.399273l205.730909 117.201455a14.429091 14.429091 0 0 1-7.168 26.996363zM800.581818 1011.991273a14.429091 14.429091 0 0 1-12.474182-7.261091 14.242909 14.242909 0 0 1 5.306182-19.549091L996.072727 867.979636a14.336 14.336 0 0 1 14.336 24.855273L807.656727 1010.036364a14.336 14.336 0 0 1-7.074909 1.954909z" fill="#4796DD" p-id="5581"></path><path d="M802.350545 1011.991273a14.056727 14.056727 0 0 1-7.168-1.954909L592.151273 892.834909a14.336 14.336 0 0 1 14.429091-24.855273L809.890909 985.181091a14.429091 14.429091 0 0 1-7.168 26.810182z" fill="#4796DD" p-id="5582"></path></svg>